<svg width="60" height="60" viewBox="0 0 60 60" fill="none" xmlns="http://www.w3.org/2000/svg">
<path d="M48.2464 33.8337C46.0822 28.5549 44.9997 22.9913 44.9997 17.143C44.9997 13.46 43.9289 10.5362 41.7867 8.37078C39.643 6.20546 36.6964 4.89928 32.9464 4.45306C33.1246 4.05152 33.2136 3.63861 33.2136 3.21443C33.2136 2.32152 32.9013 1.56195 32.2765 0.937474C31.6517 0.312296 30.8928 0 29.9998 0C29.1074 0 28.3483 0.312296 27.7231 0.937474C27.098 1.56242 26.7857 2.32152 26.7857 3.21443C26.7857 3.63861 26.8748 4.05117 27.0537 4.45306C23.3037 4.89975 20.3571 6.20534 18.2143 8.37078C16.0716 10.5361 15.0003 13.4599 15.0003 17.143C15.0003 22.9913 13.918 28.5549 11.7526 33.8337C9.58727 39.1128 6.38433 43.5494 2.14307 47.1432C2.14307 48.3037 2.56724 49.3084 3.41547 50.1563C4.26358 51.0043 5.2679 51.4289 6.42901 51.4289H21.429C21.429 53.7952 22.2657 55.8154 23.9399 57.489C25.6142 59.1628 27.6344 60 30.0003 60C32.3665 60 34.3867 59.1628 36.0603 57.489C37.7341 55.8154 38.5713 53.7952 38.5713 51.4289H53.5713C54.7319 51.4289 55.7373 51.0052 56.5845 50.1563C57.4328 49.3084 57.8571 48.3037 57.8571 47.1432C53.6165 43.5494 50.4133 39.1128 48.2464 33.8337ZM30.0003 57.3211C28.3709 57.3211 26.9809 56.747 25.8315 55.5975C24.6821 54.4477 24.1072 53.0576 24.1072 51.4281C24.1072 51.0709 24.2859 50.8924 24.6429 50.8924C25.0001 50.8924 25.1789 51.0709 25.1789 51.4281C25.1789 52.7452 25.653 53.8778 26.6016 54.8269C27.5504 55.7761 28.6831 56.25 30.0001 56.25C30.3574 56.25 30.5367 56.4294 30.5367 56.7858C30.5369 57.143 30.3575 57.3211 30.0003 57.3211Z" fill="#FAB95B"/>
</svg>
