<svg width="224" height="130" viewBox="0 0 224 130" fill="none" xmlns="http://www.w3.org/2000/svg">
<rect x="10" y="10" width="120" height="120" fill="#FAB95B"/>
<path d="M2 37.1111V2H122.889V37.1111M2 88.2222V122H122.889V88.2222" stroke="#1A3263" stroke-width="4"/>
<path d="M39.85 43.6044C38.5667 43.6778 37.6133 43.8794 36.99 44.2094C36.3667 44.5028 35.945 45.0161 35.725 45.7494C35.505 46.4461 35.395 47.4911 35.395 48.8844V81.7194H34.13L11.03 46.0244V75.0644C11.03 76.4944 11.14 77.5578 11.36 78.2544C11.6167 78.9511 12.0933 79.4644 12.79 79.7944C13.4867 80.0878 14.5683 80.2711 16.035 80.3444V81.4444C14.715 81.3344 12.845 81.2794 10.425 81.2794C8.225 81.2794 6.52 81.3344 5.31 81.4444V80.3444C6.59333 80.2711 7.54667 80.0878 8.17 79.7944C8.79333 79.4644 9.215 78.9511 9.435 78.2544C9.655 77.5211 9.765 76.4578 9.765 75.0644V48.3344C9.765 46.9411 9.655 45.9328 9.435 45.3094C9.215 44.6861 8.79333 44.2644 8.17 44.0444C7.58333 43.8244 6.63 43.6778 5.31 43.6044V42.5044C6.52 42.6144 8.225 42.6694 10.425 42.6694C12.075 42.6694 13.505 42.6144 14.715 42.5044L34.13 72.4244V48.8844C34.13 47.4544 34.0017 46.3911 33.745 45.6944C33.525 44.9978 33.0667 44.5028 32.37 44.2094C31.6733 43.8794 30.5917 43.6778 29.125 43.6044V42.5044C30.445 42.6144 32.315 42.6694 34.735 42.6694C36.935 42.6694 38.64 42.6144 39.85 42.5044V43.6044ZM57.0362 52.3494C60.7762 52.3494 63.7829 53.5961 66.0562 56.0894C68.3662 58.5461 69.5212 62.2861 69.5212 67.3094C69.5212 72.3328 68.3662 76.0728 66.0562 78.5294C63.7829 80.9861 60.7762 82.2144 57.0362 82.2144C53.2962 82.2144 50.2712 80.9861 47.9612 78.5294C45.6879 76.0728 44.5512 72.3328 44.5512 67.3094C44.5512 62.2861 45.6879 58.5461 47.9612 56.0894C50.2712 53.5961 53.2962 52.3494 57.0362 52.3494ZM57.0362 53.4494C54.8362 53.4494 53.0945 54.5861 51.8112 56.8594C50.5279 59.0961 49.8862 62.5794 49.8862 67.3094C49.8862 72.0394 50.5279 75.5228 51.8112 77.7594C53.0945 79.9961 54.8362 81.1144 57.0362 81.1144C59.2362 81.1144 60.9779 79.9961 62.2612 77.7594C63.5445 75.5228 64.1862 72.0394 64.1862 67.3094C64.1862 62.5794 63.5445 59.0961 62.2612 56.8594C60.9779 54.5861 59.2362 53.4494 57.0362 53.4494ZM83.648 53.1744H91.788V54.2744H83.648V75.5594C83.648 77.2094 83.9414 78.4011 84.528 79.1344C85.1514 79.8678 86.0314 80.2344 87.168 80.2344C88.3047 80.2344 89.2764 79.7761 90.083 78.8594C90.8897 77.9428 91.568 76.4394 92.118 74.3494L93.218 74.6244C92.3014 79.6844 89.918 82.2144 86.068 82.2144C84.8214 82.2144 83.7947 82.0678 82.988 81.7744C82.1814 81.4811 81.4664 81.0228 80.843 80.3994C80.0364 79.5928 79.468 78.6028 79.138 77.4294C78.8447 76.2561 78.698 74.6794 78.698 72.6994V54.2744H73.418V53.1744H78.698V44.7594C80.7514 44.6861 82.4014 44.4294 83.648 43.9894V53.1744ZM119.206 74.8444C118.546 76.8611 117.3 78.6028 115.466 80.0694C113.67 81.4994 111.488 82.2144 108.921 82.2144C106.318 82.2144 104.063 81.6278 102.156 80.4544C100.25 79.2444 98.7831 77.5761 97.7564 75.4494C96.7664 73.2861 96.2714 70.7928 96.2714 67.9694C96.2714 64.7794 96.7847 62.0111 97.8114 59.6644C98.8381 57.3178 100.286 55.5211 102.156 54.2744C104.026 52.9911 106.208 52.3494 108.701 52.3494C112.001 52.3494 114.531 53.3578 116.291 55.3744C118.088 57.3544 118.986 60.3794 118.986 64.4494H101.771C101.661 65.4761 101.606 66.6494 101.606 67.9694C101.606 70.3894 101.991 72.4978 102.761 74.2944C103.568 76.0911 104.613 77.4844 105.896 78.4744C107.216 79.4278 108.591 79.9044 110.021 79.9044C111.781 79.9044 113.34 79.4828 114.696 78.6394C116.053 77.7961 117.19 76.3844 118.106 74.4044L119.206 74.8444ZM108.481 53.3944C106.758 53.3944 105.273 54.2378 104.026 55.9244C102.78 57.6111 102.01 60.1044 101.716 63.4044H113.706C113.78 60.5444 113.358 58.1611 112.441 56.2544C111.561 54.3478 110.241 53.3944 108.481 53.3944ZM141.364 52.3494C142.83 52.3494 144.022 52.7711 144.939 53.6144C145.892 54.4578 146.369 55.4844 146.369 56.6944C146.369 57.6478 146.075 58.4728 145.489 59.1694C144.939 59.8294 144.187 60.1594 143.234 60.1594C142.427 60.1594 141.73 59.9028 141.144 59.3894C140.594 58.8761 140.319 58.1794 140.319 57.2994C140.319 56.0894 140.942 55.0994 142.189 54.3294C141.932 53.9628 141.547 53.7794 141.034 53.7794C139.604 53.7794 138.302 54.3478 137.129 55.4844C135.955 56.5844 135.039 57.9411 134.379 59.5544C133.719 61.1678 133.389 62.6894 133.389 64.1194V75.7794C133.389 77.4661 133.865 78.6394 134.819 79.2994C135.809 79.9594 137.275 80.2894 139.219 80.2894V81.4444L137.899 81.3894C134.159 81.2794 131.775 81.2244 130.749 81.2244C129.795 81.2244 127.632 81.2978 124.259 81.4444V80.2894C125.799 80.2894 126.88 80.0144 127.504 79.4644C128.127 78.8778 128.439 77.8328 128.439 76.3294V59.1144C128.439 57.4278 128.127 56.1994 127.504 55.4294C126.88 54.6594 125.799 54.2744 124.259 54.2744V53.1194C125.432 53.2294 126.569 53.2844 127.669 53.2844C129.979 53.2844 131.885 53.0278 133.389 52.5144V59.3894C134.049 57.5561 135.094 55.9244 136.524 54.4944C137.99 53.0644 139.604 52.3494 141.364 52.3494ZM156.121 39.3694C157.074 39.3694 157.899 39.7178 158.596 40.4144C159.293 41.1111 159.641 41.9361 159.641 42.8894C159.641 43.8428 159.293 44.6678 158.596 45.3644C157.899 46.0611 157.074 46.4094 156.121 46.4094C155.168 46.4094 154.343 46.0611 153.646 45.3644C152.949 44.6678 152.601 43.8428 152.601 42.8894C152.601 41.9361 152.949 41.1111 153.646 40.4144C154.343 39.7178 155.168 39.3694 156.121 39.3694ZM158.981 76.3294C158.981 77.8328 159.293 78.8778 159.916 79.4644C160.539 80.0144 161.621 80.2894 163.161 80.2894V81.4444C159.788 81.2978 157.569 81.2244 156.506 81.2244C155.443 81.2244 153.224 81.2978 149.851 81.4444V80.2894C151.391 80.2894 152.473 80.0144 153.096 79.4644C153.719 78.8778 154.031 77.8328 154.031 76.3294V59.1144C154.031 57.4278 153.719 56.1994 153.096 55.4294C152.473 54.6594 151.391 54.2744 149.851 54.2744V53.1194C151.024 53.2294 152.161 53.2844 153.261 53.2844C155.571 53.2844 157.478 53.0278 158.981 52.5144V76.3294ZM174.434 81.8294C172.124 81.8294 170.401 81.2611 169.264 80.1244C168.164 78.9511 167.614 77.3378 167.614 75.2844C167.614 73.6344 168.054 72.2778 168.934 71.2144C169.851 70.1511 170.914 69.3078 172.124 68.6844C173.371 68.0611 175.002 67.4011 177.019 66.7044C179.072 66.0078 180.594 65.3661 181.584 64.7794C182.574 64.1928 183.069 63.4044 183.069 62.4144V59.0044C183.069 56.8778 182.611 55.4294 181.694 54.6594C180.814 53.8528 179.567 53.4494 177.954 53.4494C175.387 53.4494 173.572 54.1094 172.509 55.4294C173.242 55.6128 173.847 55.9978 174.324 56.5844C174.837 57.1711 175.094 57.9044 175.094 58.7844C175.094 59.7011 174.801 60.4344 174.214 60.9844C173.627 61.4978 172.876 61.7544 171.959 61.7544C170.932 61.7544 170.162 61.4428 169.649 60.8194C169.136 60.1594 168.879 59.3711 168.879 58.4544C168.879 57.5744 169.081 56.8411 169.484 56.2544C169.924 55.6678 170.566 55.0811 171.409 54.4944C172.289 53.8711 173.407 53.3578 174.764 52.9544C176.121 52.5511 177.606 52.3494 179.219 52.3494C182.079 52.3494 184.242 53.0278 185.709 54.3844C186.626 55.2278 187.231 56.2544 187.524 57.4644C187.854 58.6378 188.019 60.1961 188.019 62.1394V77.4294C188.019 78.3461 188.147 79.0061 188.404 79.4094C188.661 79.8128 189.101 80.0144 189.724 80.0144C190.164 80.0144 190.567 79.9228 190.934 79.7394C191.337 79.5194 191.759 79.2261 192.199 78.8594L192.804 79.7944C191.851 80.5278 191.026 81.0594 190.329 81.3894C189.669 81.6828 188.826 81.8294 187.799 81.8294C186.039 81.8294 184.811 81.3894 184.114 80.5094C183.417 79.6294 183.069 78.4378 183.069 76.9344C181.969 78.7678 180.704 80.0511 179.274 80.7844C177.844 81.4811 176.231 81.8294 174.434 81.8294ZM176.854 79.6294C179.274 79.6294 181.346 78.2361 183.069 75.4494V64.6694C182.739 65.1828 182.281 65.6044 181.694 65.9344C181.107 66.2644 180.209 66.7044 178.999 67.2544C177.606 67.8411 176.469 68.4094 175.589 68.9594C174.746 69.4728 174.012 70.1878 173.389 71.1044C172.766 72.0211 172.454 73.1944 172.454 74.6244C172.454 76.2744 172.857 77.5211 173.664 78.3644C174.471 79.2078 175.534 79.6294 176.854 79.6294Z" fill="#1A3263"/>
</svg>
